<!--?xml version="1.0" encoding="utf-8"?-->
<!-- Generator: Adobe Illustrator 18.1.1, SVG Export Plug-In . SVG Version: 6.00 Build 0)  -->

<svg version="1.1" id="_x32_" xmlns="http://www.w3.org/2000/svg" xmlns:xlink="http://www.w3.org/1999/xlink" x="0px" y="0px" viewBox="0 0 512 512" style="width: 256px; height: 256px; opacity: 1;" xml:space="preserve">
<style type="text/css">
	.st0{fill:#4B4B4B;}
</style>
<g>
	<path class="st0" d="M437.575,351.629V89.868C437.575,40.233,397.351,0,347.707,0H164.293c-49.625,0-89.868,40.233-89.868,89.868
		v261.761c0,37.628,27.383,68.98,63.269,75.221L81.334,512h50.11l23.132-34.961h202.867L380.574,512h50.101l-56.35-85.15
		C410.201,420.601,437.575,389.257,437.575,351.629z M178.182,40.348h155.636v25.94H178.182V40.348z M131.355,124.186
		c0-11.284,9.137-20.438,20.421-20.438h208.456c11.276,0,20.429,9.154,20.429,20.438v86.206c0,11.284-9.154,20.429-20.429,20.429
		H151.777c-11.284,0-20.421-9.145-20.421-20.429V124.186z M150.808,374.004c-13.158,0-23.826-10.668-23.826-23.818
		c0-13.167,10.668-23.836,23.826-23.836c13.159,0,23.827,10.668,23.827,23.836C174.635,363.336,163.967,374.004,150.808,374.004z
		 M169.618,454.312l17.41-26.318h137.953l17.41,26.318H169.618z M361.201,374.004c-13.158,0-23.826-10.668-23.826-23.818
		c0-13.167,10.668-23.836,23.826-23.836c13.159,0,23.827,10.668,23.827,23.836C385.028,363.336,374.36,374.004,361.201,374.004z" style="fill: rgb(75, 75, 75);"></path>
</g>
</svg>
