<?xml version="1.0" standalone="no"?>
<!DOCTYPE svg PUBLIC "-//W3C//DTD SVG 20010904//EN"
 "http://www.w3.org/TR/2001/REC-SVG-20010904/DTD/svg10.dtd">
<svg version="1.0" xmlns="http://www.w3.org/2000/svg"
 width="260.000000pt" height="260.000000pt" viewBox="0 0 260.000000 260.000000"
 preserveAspectRatio="xMidYMid meet">
<metadata>
Created by potrace 1.11, written by Peter Selinger 2001-2013
</metadata>
<g transform="translate(0.000000,260.000000) scale(0.100000,-0.100000)"
fill="#000000" stroke="none">
<path d="M1314 2581 c-44 -27 -102 -98 -131 -161 l-26 -55 -52 52 c-55 53
-126 95 -181 107 -28 6 -35 3 -62 -29 -66 -81 -101 -277 -82 -463 12 -112 37
-193 89 -280 l31 -53 -42 26 c-124 76 -213 99 -393 98 -160 -1 -267 -23 -345
-71 -42 -27 -45 -31 -43 -70 2 -56 45 -131 108 -191 l51 -49 -55 -23 c-71 -29
-181 -134 -181 -173 0 -35 66 -106 139 -150 181 -110 420 -155 592 -113 l57
14 -59 -54 c-32 -30 -76 -81 -98 -114 -83 -124 -148 -352 -138 -484 8 -104 21
-132 63 -140 48 -9 137 11 208 46 33 16 60 29 62 29 1 0 7 -30 14 -67 20 -117
76 -213 124 -213 41 0 124 48 189 110 162 151 267 354 267 514 l0 50 36 -74
c19 -41 54 -99 76 -128 56 -75 186 -175 305 -234 88 -44 111 -52 177 -56 l76
-5 17 39 c18 43 23 172 10 241 l-9 42 34 -9 c70 -21 223 -9 268 19 24 16 15
118 -18 205 -68 173 -213 343 -357 418 l-87 45 65 7 c124 12 249 70 381 177
109 87 183 186 200 265 6 27 3 35 -26 59 -46 39 -102 62 -186 76 l-71 12 24
41 c34 59 57 147 53 208 -3 47 -6 54 -33 67 -80 38 -275 18 -440 -45 -109 -42
-175 -84 -250 -161 -34 -34 -55 -50 -52 -38 17 55 28 174 22 224 -25 209 -147
465 -246 516 -36 19 -38 19 -75 -4z"/>
</g>
</svg>
