<?xml version="1.0" encoding="utf-8"?>
<!-- Generator: Adobe Illustrator 12.0.0, SVG Export Plug-In  -->
<!DOCTYPE svg PUBLIC "-//W3C//DTD SVG 1.1//EN" "http://www.w3.org/Graphics/SVG/1.1/DTD/svg11.dtd" [
	<!ENTITY ns_flows "http://ns.adobe.com/Flows/1.0/">
	<!ENTITY ns_svg "http://www.w3.org/2000/svg">
	<!ENTITY ns_xlink "http://www.w3.org/1999/xlink">
]>
<svg  version="1.1" xmlns="&ns_svg;" xmlns:xlink="&ns_xlink;" xmlns:a="http://ns.adobe.com/AdobeSVGViewerExtensions/3.0/"
	 width="199" height="149" viewBox="10.199 10.81 199 149" enable-background="new 10.199 10.81 199 149" xml:space="preserve">
<defs>
</defs>
<rect x="9.281" y="9.829" fill="#F4F4F4" width="200" height="150"/>
<line fill="none" stroke="#666666" stroke-width="5" x1="23.961" y1="0.004" x2="24.191" y2="150.353"/>
<line fill="none" stroke="#FFFFFF" stroke-width="3" stroke-dasharray="8" x1="23.961" y1="0.004" x2="24.191" y2="150.353"/>
<path fill="none" stroke="#666666" stroke-width="3" stroke-dasharray="10 2" d="M205.448,159.829l-6.068-26.162
	c-8.952-31.415-33.905-57.359-67.839-66.012C80.767,54.708,29.111,85.373,16.164,136.146L5.786,142.31l-5.02,2.979"/>
<path fill="none" stroke="#666666" stroke-width="3" stroke-dasharray="10 2" d="M205.448,159.829l-6.068-26.162
	c-8.952-31.415-33.905-57.359-67.839-66.012C80.767,54.708,29.111,85.373,16.164,136.146L5.786,142.31l-5.02,2.979"/>
<path fill="none" stroke="#B2B2B2" stroke-width="3" d="M24.512,137.55c11.671-45.771,58.945-73.235,105.59-61.341
	c31.176,7.949,54.178,31.467,62.522,59.854"/>
<path fill="none" stroke="#EE9CA1" stroke-width="6" d="M77.963,77.161c15.88-5.545,33.62-6.627,51.275-2.125
	c31.345,7.992,54.489,31.563,62.908,59.992"/>
<line fill="none" stroke="#EE9CA1" stroke-width="6" x1="114.378" y1="67.67" x2="114.504" y2="81.542"/>
<rect x="109.042" y="61.921" transform="matrix(1 0.0042 -0.0042 1 0.2702 -0.4774)" fill="#FF7F00" width="10.142" height="4.7"/>
<rect x="193.54" y="128.767" transform="matrix(0.2657 0.9641 -0.9641 0.2657 272.2556 -95.1912)" fill="#FF7F00" width="10.146" height="4.701"/>
<rect x="12.6" y="128.527" transform="matrix(-0.3928 0.9196 -0.9196 -0.3928 144.9725 166.0359)" fill="#FF7F00" width="10.145" height="4.701"/>
<rect x="18.892" y="114.282" transform="matrix(-0.0024 1 -1 -0.0024 140.9883 93.2793)" fill="#FF7F00" width="10.146" height="5.371"/>
<g>
	<text transform="matrix(0.7739 0.6333 -0.6333 0.7739 153.52 55.8145)"><tspan x="0" y="0" fill="#666666" font-family="'Arial-BoldMT'" font-size="10">Shin-Keisei</tspan><tspan x="0" y="10" fill="#666666" font-family="'Arial-BoldMT'" font-size="10"> Line</tspan></text>
</g>
<g>
	<text transform="matrix(1 0.0019 -0.0019 1 28.4321 31.5215)" fill="#666666" font-family="'Arial-BoldMT'" font-size="10">JR Musashino Line</text>
</g>
<g>
	
		<text transform="matrix(1 -0.001 0.001 1 60.23 59.1035)" fill="none" stroke="#FFFFFF" stroke-width="4" stroke-linecap="round" stroke-linejoin="round" font-family="'Arial-BoldMT'" font-size="15">Tokiwadaira </text>
	<text transform="matrix(1 -0.001 0.001 1 60.23 59.1035)" font-family="'Arial-BoldMT'" font-size="15">Tokiwadaira </text>
</g>
<g>
	
		<text transform="matrix(1 -0.0076 0.0076 1 28.3486 128.2373)" fill="none" stroke="#FFFFFF" stroke-width="4" stroke-linecap="round" stroke-linejoin="round" font-family="'Arial-BoldMT'" font-size="15" letter-spacing="-1">JR Shin-Yahashira</text>
	<text transform="matrix(1 -0.0076 0.0076 1 28.3486 128.2373)" font-family="'Arial-BoldMT'" font-size="15" letter-spacing="-1">JR Shin-Yahashira</text>
</g>
<g>
	
		<text transform="matrix(1 8.000000e-005 -8.000000e-005 1 12.144 149.4316)" fill="none" stroke="#FFFFFF" stroke-width="4" stroke-linecap="round" stroke-linejoin="round" font-family="'Arial-BoldMT'" font-size="15">Yabashira</text>
	<text transform="matrix(1 8.000000e-005 -8.000000e-005 1 12.144 149.4316)" font-family="'Arial-BoldMT'" font-size="15">Yabashira</text>
</g>
<g>
	
		<text transform="matrix(1 -0.0032 0.0032 1 157.7378 147.668)" fill="none" stroke="#FFFFFF" stroke-width="4" stroke-linecap="round" stroke-linejoin="round" font-family="'Arial-BoldMT'" font-size="15">Goko</text>
	<text transform="matrix(1 -0.0032 0.0032 1 157.7378 147.668)" font-family="'Arial-BoldMT'" font-size="15">Goko</text>
</g>
</svg>
