<?xml version="1.0" encoding="utf-8"?>
<!-- Generator: Adobe Illustrator 16.0.0, SVG Export Plug-In . SVG Version: 6.00 Build 0)  -->
<!DOCTYPE svg PUBLIC "-//W3C//DTD SVG 1.1//EN" "http://www.w3.org/Graphics/SVG/1.1/DTD/svg11.dtd">
<svg version="1.1" id="レイヤー_1" xmlns="http://www.w3.org/2000/svg" xmlns:xlink="http://www.w3.org/1999/xlink" x="0px"
	 y="0px" width="31.333px" height="19.667px" viewBox="0 0 31.333 19.667" enable-background="new 0 0 31.333 19.667"
	 xml:space="preserve">
<g>
	<path fill="#6DA57B" d="M0,5.661c0,0,0.99,4.415,4.363,6.169c3.374,1.754,7.545,0.814,7.545,0.814S8.513,9.058,6.053,7.651
		C3.592,6.246,0,5.661,0,5.661z"/>
</g>
<g>
	<path fill="#6DA57B" d="M0.419,16.292c0,0,3.511,2.854,7.247,2.141c3.735-0.715,6.428-4.035,6.428-4.035s-4.887-0.711-7.689-0.291
		C3.602,14.527,0.419,16.292,0.419,16.292z"/>
</g>
<g>
	
		<ellipse transform="matrix(0.964 -0.266 0.266 0.964 -1.778 5.9283)" fill="#DE6867" cx="20.997" cy="9.528" rx="1.728" ry="1.607"/>
	<g>
		<path fill="#EB7680" d="M30.346,6.951c-0.514-0.61-1.521-0.821-2.203-0.803c0.414-0.546,0.834-1.485,0.642-2.257
			c-0.72-0.503-2.562-0.262-4.146,0.546c-0.608,0.311-1.185,0.867-1.681,1.538c0.258-0.808,0.375-1.616,0.266-2.301
			C22.944,1.919,22.058,0.288,21.226,0c-0.737,0.301-1.25,1.193-1.446,1.849c-0.389-0.562-1.152-1.253-1.947-1.309
			c-0.7,0.529-1.041,2.356-0.759,4.112c0.113,0.719,0.508,1.488,1.042,2.207c-0.724-0.543-1.502-0.945-2.229-1.061
			c-1.756-0.276-3.584,0.062-4.11,0.762c0.056,0.795,0.745,1.559,1.306,1.947c-0.653,0.198-1.545,0.709-1.845,1.449
			c0.285,0.829,1.919,1.717,3.675,1.994c0.728,0.115,1.594-0.028,2.452-0.322c-0.733,0.519-1.348,1.13-1.679,1.781
			c-0.808,1.584-1.05,3.426-0.547,4.145c0.774,0.19,1.713-0.228,2.257-0.643c-0.016,0.684,0.197,1.688,0.807,2.203
			c0.879-0.017,2.227-1.296,3.031-2.879c0.315-0.617,0.454-1.42,0.458-2.268c0.266,0.791,0.643,1.497,1.126,1.98
			c1.257,1.256,2.934,2.059,3.774,1.801c0.419-0.677,0.312-1.699,0.085-2.346c0.645,0.227,1.667,0.335,2.345-0.084
			c0.254-0.842-0.546-2.52-1.802-3.775c-0.466-0.466-1.14-0.834-1.896-1.099c0.801-0.017,1.556-0.16,2.143-0.459
			C29.051,9.177,30.332,7.829,30.346,6.951z M19.869,8.617c0.136,0.102,0.272,0.206,0.41,0.296
			c-0.047,0.025-0.102,0.042-0.145,0.073C20.054,8.862,19.96,8.74,19.869,8.617z M21.965,9.824c0.136,0.056,0.278,0.105,0.422,0.155
			c-0.139,0.002-0.277,0.003-0.411,0.013C21.98,9.937,21.969,9.88,21.965,9.824z M21.53,9.017c-0.061-0.047-0.117-0.096-0.186-0.13
			c0.121-0.14,0.237-0.29,0.351-0.446C21.632,8.635,21.575,8.827,21.53,9.017z M19.574,10.498c0.063-0.045,0.125-0.09,0.187-0.137
			c0.01,0.023,0.022,0.044,0.033,0.066C19.721,10.45,19.648,10.472,19.574,10.498z M21.186,11.022
			c0.025-0.008,0.044-0.025,0.068-0.035c-0.002,0.079-0.001,0.16-0.001,0.24C21.23,11.159,21.209,11.089,21.186,11.022z"/>
		<g>
			<g>
				<path fill="#FFFFFF" d="M23.184,6.895c-0.085-0.066-0.195-0.09-0.296-0.062c-0.065,0.018-0.12,0.055-0.159,0.106
					c-0.082,0.098-0.093,0.235-0.033,0.346l-1.66,1.978c-0.055,0.075-0.041,0.178,0.029,0.235c0.037,0.031,0.088,0.041,0.139,0.027
					c0.033-0.009,0.065-0.03,0.087-0.058l1.607-2.018c0.12,0.033,0.257-0.01,0.327-0.104C23.337,7.206,23.319,7.004,23.184,6.895z"
					/>
				<path fill="#FFFFFF" d="M18.452,12.782c0.085,0.067,0.195,0.09,0.295,0.062c0.065-0.018,0.121-0.055,0.161-0.106
					C18.989,12.64,19,12.501,18.94,12.39l1.66-1.977c0.055-0.075,0.041-0.178-0.03-0.235c-0.036-0.031-0.087-0.041-0.137-0.027
					c-0.035,0.01-0.066,0.03-0.088,0.058l-1.606,2.017c-0.121-0.032-0.257,0.012-0.329,0.105
					C18.298,12.47,18.317,12.672,18.452,12.782z"/>
			</g>
			<g>
				<path fill="#FFFFFF" d="M24.573,9.43c-0.014-0.107-0.074-0.201-0.165-0.253c-0.06-0.033-0.125-0.046-0.19-0.037
					c-0.125,0.012-0.23,0.101-0.268,0.222l-2.57,0.225c-0.092,0.014-0.156,0.097-0.146,0.187c0.003,0.048,0.032,0.091,0.077,0.117
					c0.031,0.018,0.068,0.026,0.104,0.021l2.562-0.29c0.062,0.108,0.189,0.174,0.307,0.159C24.46,9.759,24.59,9.604,24.573,9.43z"/>
				<path fill="#FFFFFF" d="M17.065,10.247c0.012,0.107,0.072,0.202,0.164,0.253c0.059,0.033,0.123,0.046,0.188,0.037
					c0.126-0.011,0.231-0.1,0.269-0.221l2.571-0.225c0.091-0.013,0.155-0.097,0.146-0.187c-0.004-0.048-0.033-0.091-0.078-0.117
					c-0.031-0.018-0.068-0.026-0.104-0.021l-2.562,0.29c-0.062-0.108-0.188-0.174-0.307-0.158
					C17.174,9.917,17.045,10.073,17.065,10.247z"/>
			</g>
			<g>
				<path fill="#FFFFFF" d="M23.76,12.204c0.067-0.085,0.091-0.194,0.063-0.294c-0.019-0.066-0.056-0.121-0.107-0.162
					c-0.097-0.08-0.235-0.092-0.347-0.031l-1.978-1.66c-0.073-0.055-0.178-0.042-0.234,0.03c-0.031,0.036-0.041,0.087-0.027,0.137
					c0.009,0.035,0.03,0.066,0.058,0.087l2.018,1.607c-0.031,0.12,0.011,0.257,0.104,0.327C23.45,12.358,23.652,12.339,23.76,12.204
					z"/>
				<path fill="#FFFFFF" d="M17.875,7.473c-0.067,0.084-0.092,0.194-0.063,0.294c0.019,0.065,0.056,0.121,0.107,0.16
					c0.097,0.081,0.235,0.093,0.347,0.034l1.977,1.659c0.074,0.055,0.179,0.042,0.235-0.03c0.031-0.036,0.042-0.087,0.027-0.137
					c-0.01-0.035-0.03-0.066-0.058-0.087L18.43,7.758c0.031-0.12-0.01-0.256-0.105-0.329C18.186,7.318,17.984,7.338,17.875,7.473z"
					/>
			</g>
			<g>
				<path fill="#FFFFFF" d="M21.226,13.591c0.107-0.012,0.201-0.074,0.253-0.164c0.033-0.058,0.046-0.124,0.037-0.188
					c-0.012-0.126-0.101-0.231-0.221-0.269l-0.225-2.571c-0.014-0.091-0.098-0.155-0.188-0.145
					c-0.048,0.003-0.091,0.033-0.117,0.078c-0.018,0.031-0.024,0.067-0.021,0.102l0.29,2.563c-0.108,0.062-0.174,0.189-0.158,0.307
					C20.897,13.481,21.053,13.611,21.226,13.591z"/>
				<path fill="#FFFFFF" d="M20.41,6.084c-0.106,0.013-0.202,0.074-0.253,0.165c-0.033,0.058-0.046,0.124-0.037,0.189
					c0.012,0.125,0.101,0.231,0.221,0.268l0.225,2.572c0.014,0.092,0.098,0.156,0.188,0.146C20.8,9.419,20.844,9.39,20.87,9.345
					c0.018-0.031,0.025-0.068,0.02-0.102L20.6,6.679c0.107-0.062,0.174-0.189,0.158-0.306C20.739,6.195,20.583,6.066,20.41,6.084z"
					/>
			</g>
		</g>
	</g>
</g>
</svg>
