<?xml version="1.0" encoding="utf-8"?>
<!-- Generator: Adobe Illustrator 12.0.0, SVG Export Plug-In  -->
<!DOCTYPE svg PUBLIC "-//W3C//DTD SVG 1.1//EN" "http://www.w3.org/Graphics/SVG/1.1/DTD/svg11.dtd" [
	<!ENTITY ns_flows "http://ns.adobe.com/Flows/1.0/">
	<!ENTITY ns_svg "http://www.w3.org/2000/svg">
	<!ENTITY ns_xlink "http://www.w3.org/1999/xlink">
]>
<svg  version="1.1" xmlns="&ns_svg;" xmlns:xlink="&ns_xlink;" xmlns:a="http://ns.adobe.com/AdobeSVGViewerExtensions/3.0/"
	 width="35" height="43" viewBox="-0.162 -0.957 35 43" enable-background="new -0.162 -0.957 35 43" xml:space="preserve">
<defs>
</defs>
<path fill="#4B4B4B" d="M32.654,3.051c0.012-0.017,0.025-0.032,0.035-0.05c-0.914,0.405-1.887,0.701-2.896,0.885
	c-0.24,0.037-0.484,0.068-0.727,0.086c1.029-0.632,1.859-1.551,2.396-2.642c0.141-0.272,0.279-0.546,0.383-0.834
	c-0.012,0.008-0.025,0.013-0.037,0.021c0.006-0.018,0.016-0.032,0.021-0.049c-1.238,0.733-2.607,1.266-4.064,1.553
	C26.595,0.777,24.933,0,23.093,0c-3.535,0-6.4,2.866-6.4,6.4c0,0.46,0.053,0.908,0.145,1.34c0.005,0.04,0.009,0.078,0.013,0.117
	C12.175,7.622,7.966,5.619,4.873,2.505C4.461,2.086,4.066,1.65,3.696,1.188C3.695,1.191,3.693,1.194,3.691,1.198
	C3.684,1.189,3.675,1.181,3.668,1.171C3.117,2.117,2.801,3.216,2.801,4.39c0,1.833,0.777,3.479,2.012,4.646
	c0.245,0.242,0.504,0.472,0.788,0.676C4.569,9.671,3.599,9.388,2.75,8.916c0,0.027,0,0.053,0,0.08c0,2.579,1.536,4.783,3.733,5.797
	c0.427,0.206,0.87,0.379,1.344,0.49c-0.521,0.136-1.066,0.214-1.629,0.214c-0.365,0-0.716-0.044-1.063-0.103
	c-0.035-0.01-0.075-0.013-0.11-0.023c0.002,0.004,0.004,0.009,0.006,0.013c-0.012-0.002-0.025,0-0.038-0.004
	c0.713,2.228,2.613,3.922,4.954,4.345c0.326,0.064,0.658,0.104,0.997,0.121c-2.187,1.703-4.935,2.718-7.921,2.718
	c-0.415,0-0.821-0.033-1.227-0.069c-0.093-0.02-0.19-0.026-0.282-0.046c0.018,0.01,0.037,0.02,0.055,0.031
	c-0.024-0.002-0.048-0.002-0.072-0.005c2.832,1.816,6.196,2.877,9.81,2.877c6.504,0,11.371-2.982,14.432-7.076
	c0.01-0.012,0.02-0.023,0.031-0.038c0.295-0.392,0.563-0.798,0.818-1.21c0.055-0.085,0.115-0.164,0.164-0.249
	c0.24-0.394,0.457-0.797,0.664-1.204c0.053-0.101,0.111-0.2,0.16-0.303c0.244-0.493,0.461-0.996,0.658-1.506
	c0.004-0.005,0.006-0.01,0.008-0.017c0.836-2.164,1.271-4.428,1.271-6.608c0-0.277-0.006-0.553-0.016-0.828
	c0.992-0.718,1.877-1.583,2.635-2.551c0.193-0.24,0.389-0.481,0.57-0.732C32.685,3.039,32.669,3.044,32.654,3.051z"/>
<text transform="matrix(1 0 0 1 0 36.0435)" font-family="'Meiryo-Bold'" font-size="12">をみる</text>
</svg>
