<?xml version="1.0" encoding="utf-8"?>
<!-- Generator: Adobe Illustrator 12.0.0, SVG Export Plug-In  -->
<!DOCTYPE svg PUBLIC "-//W3C//DTD SVG 1.1//EN" "http://www.w3.org/Graphics/SVG/1.1/DTD/svg11.dtd" [
	<!ENTITY ns_flows "http://ns.adobe.com/Flows/1.0/">
	<!ENTITY ns_svg "http://www.w3.org/2000/svg">
	<!ENTITY ns_xlink "http://www.w3.org/1999/xlink">
]>
<svg  version="1.1" xmlns="&ns_svg;" xmlns:xlink="&ns_xlink;" xmlns:a="http://ns.adobe.com/AdobeSVGViewerExtensions/3.0/"
	 width="32" height="41" viewBox="-0.541 -0.957 32 41" enable-background="new -0.541 -0.957 32 41" xml:space="preserve">
<defs>
</defs>
<path fill="#4B4B4B" d="M31.157,3.051c0.012-0.017,0.025-0.032,0.035-0.05c-0.914,0.405-1.887,0.701-2.896,0.885
	c-0.24,0.037-0.484,0.068-0.727,0.086c1.029-0.632,1.859-1.551,2.396-2.642c0.141-0.272,0.279-0.546,0.383-0.834
	c-0.012,0.008-0.025,0.013-0.037,0.021c0.006-0.018,0.016-0.032,0.021-0.049c-1.238,0.733-2.607,1.266-4.064,1.553
	C25.099,0.777,23.437,0,21.597,0c-3.535,0-6.399,2.866-6.399,6.4c0,0.46,0.053,0.908,0.145,1.34c0.006,0.04,0.009,0.078,0.014,0.117
	C10.679,7.622,6.47,5.619,3.376,2.505C2.965,2.086,2.57,1.65,2.2,1.188C2.198,1.191,2.196,1.194,2.195,1.198
	C2.188,1.189,2.179,1.181,2.172,1.171C1.621,2.117,1.305,3.216,1.305,4.39c0,1.833,0.777,3.479,2.012,4.646
	c0.245,0.242,0.505,0.472,0.788,0.676c-1.031-0.04-2.002-0.323-2.852-0.795c0,0.027,0,0.053,0,0.08c0,2.579,1.535,4.783,3.733,5.797
	c0.427,0.206,0.869,0.379,1.344,0.49c-0.521,0.136-1.066,0.214-1.63,0.214c-0.365,0-0.716-0.044-1.063-0.103
	c-0.035-0.01-0.075-0.013-0.109-0.023c0.002,0.004,0.004,0.009,0.006,0.013c-0.012-0.002-0.025,0-0.037-0.004
	c0.713,2.228,2.613,3.922,4.954,4.345c0.325,0.064,0.658,0.104,0.997,0.121c-2.187,1.703-4.935,2.718-7.922,2.718
	c-0.414,0-0.821-0.033-1.227-0.069c-0.093-0.02-0.19-0.026-0.282-0.046c0.019,0.01,0.037,0.02,0.055,0.031
	C0.048,22.478,0.023,22.478,0,22.475c2.832,1.816,6.196,2.877,9.81,2.877c6.505,0,11.371-2.982,14.432-7.076
	c0.01-0.012,0.02-0.023,0.031-0.038c0.295-0.392,0.563-0.798,0.818-1.21c0.055-0.085,0.115-0.164,0.164-0.249
	c0.24-0.394,0.457-0.797,0.664-1.204c0.053-0.101,0.111-0.2,0.16-0.303c0.244-0.493,0.461-0.996,0.658-1.506
	c0.004-0.005,0.006-0.01,0.008-0.017c0.836-2.164,1.271-4.428,1.271-6.608c0-0.277-0.006-0.553-0.016-0.828
	c0.992-0.718,1.877-1.583,2.635-2.551c0.193-0.24,0.389-0.481,0.57-0.732C31.188,3.039,31.173,3.044,31.157,3.051z"/>
<text transform="matrix(1 0 0 1 0.7373 35.0435)" font-family="'Meiryo-Bold'" font-size="11" letter-spacing="-1">をみる</text>
</svg>
